<svg xmlns="http://www.w3.org/2000/svg" viewBox="0 0 238.8 30.55"><defs><style>.cls-1{fill:#fff;}</style></defs><g id="Capa_2" data-name="Capa 2"><g id="Capa_1-2" data-name="Capa 1"><path class="cls-1" d="M14.36,1.91a22.22,22.22,0,0,1-7.76.33A17,17,0,0,1,1.39.31L0,3.4A17.35,17.35,0,0,0,4.67,5.35a21.34,21.34,0,0,0,3.08.54h0V23.71h4V5.9h0a19.32,19.32,0,0,0,3.13-.54A17.36,17.36,0,0,0,19.56,3.4L18.17.31A17.44,17.44,0,0,1,14.36,1.91Z"/><path class="cls-1" d="M31.21,7a8.73,8.73,0,0,0-3.14.54,6.35,6.35,0,0,0-2.36,1.57V.78H21.85V23.71h3.86V15.37A5.11,5.11,0,0,1,27,11.67a4.46,4.46,0,0,1,3.37-1.28,3.78,3.78,0,0,1,2.9,1.1,4.63,4.63,0,0,1,1,3.26v9H38.1V14.25a7.2,7.2,0,0,0-1.88-5.4A6.9,6.9,0,0,0,31.21,7Z"/><path class="cls-1" d="M57.54,10.9a7.62,7.62,0,0,0-3-2.87,9.37,9.37,0,0,0-8.6.07,7.83,7.83,0,0,0-3,3,8.54,8.54,0,0,0-1.1,4.34,8.4,8.4,0,0,0,1.13,4.37,7.79,7.79,0,0,0,3.19,3,10.1,10.1,0,0,0,4.79,1.09,10.35,10.35,0,0,0,3.84-.68,6.86,6.86,0,0,0,2.78-2l-2-2.38A6.11,6.11,0,0,1,51,20.65a6.21,6.21,0,0,1-3.12-.74A4.3,4.3,0,0,1,46,17.75l12.64-2.48A8.43,8.43,0,0,0,57.54,10.9Zm-12,4.37v0a5.22,5.22,0,0,1,1.31-3.74,4.56,4.56,0,0,1,3.45-1.39,4.74,4.74,0,0,1,2.95.93,4.42,4.42,0,0,1,1.62,2.44Z"/><path class="cls-1" d="M113.37,9.84A6.46,6.46,0,0,0,111,8.2a7.67,7.67,0,0,0-3-.55,8.76,8.76,0,0,0-4.31,1,7.46,7.46,0,0,0-3,3,8.91,8.91,0,0,0-1.07,4.43,9,9,0,0,0,1.07,4.45,7.45,7.45,0,0,0,3,3,8.76,8.76,0,0,0,4.31,1.05A8.05,8.05,0,0,0,111.2,24a5.94,5.94,0,0,0,2.36-1.76v2.13h3.67V7.83h-3.86Zm-1.33,10a5.06,5.06,0,0,1-7,0,5.16,5.16,0,0,1-1.37-3.74A5.15,5.15,0,0,1,105,12.35a5,5,0,0,1,7,0,5.08,5.08,0,0,1,1.39,3.73A5.09,5.09,0,0,1,112,19.82Z"/><path class="cls-1" d="M138.74,20.52a9,9,0,0,0,1.08-4.44,8.88,8.88,0,0,0-1.08-4.42,7.57,7.57,0,0,0-3-3,8.76,8.76,0,0,0-4.31-1,8,8,0,0,0-3.11.58A6.06,6.06,0,0,0,126,10V7.83H122.3v22.5h3.87v-8a6.66,6.66,0,0,0,5.28,2.22,8.76,8.76,0,0,0,4.31-1.05A7.56,7.56,0,0,0,138.74,20.52Zm-4.21-.7A4.67,4.67,0,0,1,131,21.24a5,5,0,0,1-2.51-.63,4.58,4.58,0,0,1-1.76-1.81,5.55,5.55,0,0,1-.65-2.72,5.58,5.58,0,0,1,.65-2.72,4.62,4.62,0,0,1,1.76-1.8,4.93,4.93,0,0,1,2.51-.64,4.68,4.68,0,0,1,3.51,1.43,5.15,5.15,0,0,1,1.37,3.73A5.16,5.16,0,0,1,134.53,19.82Z"/><path class="cls-1" d="M161,16.08a8.88,8.88,0,0,0-1.08-4.42,7.57,7.57,0,0,0-3-3,8.79,8.79,0,0,0-4.31-1,8,8,0,0,0-3.11.58A6.06,6.06,0,0,0,147.18,10V7.83H143.5v22.5h3.86v-8a6.68,6.68,0,0,0,5.29,2.22A8.79,8.79,0,0,0,157,23.5a7.56,7.56,0,0,0,3-3A9,9,0,0,0,161,16.08Zm-5.3,3.74a4.63,4.63,0,0,1-3.5,1.42,5,5,0,0,1-2.51-.63A4.51,4.51,0,0,1,148,18.8a5.55,5.55,0,0,1-.65-2.72,5.58,5.58,0,0,1,.65-2.72,4.55,4.55,0,0,1,1.76-1.8,4.91,4.91,0,0,1,2.51-.64,4.64,4.64,0,0,1,3.5,1.43,5.11,5.11,0,0,1,1.38,3.73A5.12,5.12,0,0,1,155.72,19.82Z"/><path class="cls-1" d="M180.68,7.83h-3.87v7.42a5.08,5.08,0,0,1-1.22,3.68,4.36,4.36,0,0,1-3.29,1.26,3.69,3.69,0,0,1-2.86-1.09,4.73,4.73,0,0,1-1-3.29l-.09-8h-3.87l.1,8.47a7.24,7.24,0,0,0,1.9,5.47,7.17,7.17,0,0,0,5.2,1.82,7.61,7.61,0,0,0,2.88-.54,6.07,6.07,0,0,0,2.25-1.56v.77A5.19,5.19,0,0,1,175.62,26a5,5,0,0,1-3.72,1.22,9.91,9.91,0,0,1-3.18-.52,8.05,8.05,0,0,1-2.57-1.43l-1.73,2.91a9,9,0,0,0,3.39,1.74,15.27,15.27,0,0,0,4.31.61q8.55,0,8.56-8.72Z"/><path class="cls-1" d="M200.9,6.89a8.06,8.06,0,0,1,4-1,7.55,7.55,0,0,1,5.78,2.53L213.26,6a9.89,9.89,0,0,0-3.71-2.69,12.3,12.3,0,0,0-4.85-.93,12.15,12.15,0,0,0-5.92,1.44,10.73,10.73,0,0,0-4.16,4,10.94,10.94,0,0,0-1.51,5.72,11,11,0,0,0,1.5,5.72,10.68,10.68,0,0,0,4.14,4,12.25,12.25,0,0,0,5.92,1.43,12.56,12.56,0,0,0,4.86-.92A9.91,9.91,0,0,0,213.26,21l-2.6-2.47a7.55,7.55,0,0,1-5.78,2.56,8.06,8.06,0,0,1-4-1,7,7,0,0,1-2.75-2.71,7.74,7.74,0,0,1-1-3.92,7.81,7.81,0,0,1,1-3.93A7,7,0,0,1,200.9,6.89Z"/><path class="cls-1" d="M231.23,11.73a7.89,7.89,0,0,0-3.14-3,10,10,0,0,0-9.05,0,7.89,7.89,0,0,0-3.14,3,8.42,8.42,0,0,0-1.13,4.35,8.56,8.56,0,0,0,1.13,4.38,7.91,7.91,0,0,0,3.14,3,10,10,0,0,0,9.05,0,7.91,7.91,0,0,0,3.14-3,8.55,8.55,0,0,0,1.12-4.38A8.41,8.41,0,0,0,231.23,11.73Zm-4.16,8.09a5.06,5.06,0,0,1-7,0,5.12,5.12,0,0,1-1.38-3.74A5.11,5.11,0,0,1,220,12.35a5,5,0,0,1,7,0,5.08,5.08,0,0,1,1.39,3.73A5.09,5.09,0,0,1,227.07,19.82Z"/><path class="cls-1" d="M238.18,20.77a2.13,2.13,0,0,0-1.55-.61,2.1,2.1,0,0,0-1.55.61,2.08,2.08,0,0,0-.62,1.58,2.18,2.18,0,0,0,3.7,1.58,2.3,2.3,0,0,0,0-3.16Z"/><path class="cls-1" d="M76.82,24.24h3.75V20.32a13.87,13.87,0,0,1-3.75-.76Z"/><path class="cls-1" d="M90.32,5.37a9,9,0,1,1-17.92,0H68.64A12.73,12.73,0,0,0,81.36,18.08a12.66,12.66,0,0,0,9-3.7v9.86h3.76V0H90.32Z"/><path class="cls-1" d="M80.57,11.71V0H76.82V10.39A5,5,0,0,0,80.57,11.71Z"/></g></g></svg>