<svg xmlns="http://www.w3.org/2000/svg" viewBox="0 0 50 50"><defs><style>.cls-1{fill:#3aaa81;}.cls-2{fill:none;}</style></defs><g id="Capa_2" data-name="Capa 2"><g id="Capa_1-2" data-name="Capa 1"><circle class="cls-1" cx="25" cy="25" r="4.71"/><path class="cls-1" d="M25,33.53A8.53,8.53,0,1,1,33.53,25,8.54,8.54,0,0,1,25,33.53Zm0-15.94A7.41,7.41,0,1,0,32.41,25,7.43,7.43,0,0,0,25,17.59Z"/><path class="cls-1" d="M25,37.77A12.77,12.77,0,1,1,37.77,25,12.79,12.79,0,0,1,25,37.77Zm0-23.31A10.54,10.54,0,1,0,35.54,25,10.55,10.55,0,0,0,25,14.46Z"/><path class="cls-1" d="M25,40.91A15.91,15.91,0,1,1,40.91,25,15.93,15.93,0,0,1,25,40.91Zm0-30.7A14.79,14.79,0,1,0,39.79,25,14.8,14.8,0,0,0,25,10.21Z"/><rect class="cls-2" width="50" height="50"/></g></g></svg>