<svg xmlns="http://www.w3.org/2000/svg" viewBox="0 0 50 50"><defs><style>.cls-1{fill:#3aaa81;}.cls-2{fill:none;}</style></defs><g id="Capa_2" data-name="Capa 2"><g id="Capa_1-2" data-name="Capa 1"><path class="cls-1" d="M12.82,32.26c.23-.14.35-.23.48-.3.31-.17.56-.38.5-.77s-.33-.53-.68-.61-.5-.13-.8-.22c.12-.31.22-.6.33-.89.24-.65.12-.9-.53-1.17-.34-.15-.68-.28-1-.42-.59-.25-.72-.65-.36-1.18l2.63-3.83c.44-.63.4-.77-.18-1.3A.9.9,0,0,1,13,21a15.15,15.15,0,0,1,2-6.45,11.12,11.12,0,0,1,8.79-5.83,16.76,16.76,0,0,1,10.38,2,10.27,10.27,0,0,1,5.14,7.72,12.36,12.36,0,0,1-2.78,9.75,12.47,12.47,0,0,0-2.4,4.71,11.21,11.21,0,0,0,.53,6.89l.69,1.7H20.51c-.12-.66-.23-1.31-.35-2a3.29,3.29,0,0,0-3.85-2.67,13.49,13.49,0,0,1-1.54.19A1.65,1.65,0,0,1,13,34.76a4.73,4.73,0,0,1,.41-1c.3-.57.3-.74-.16-1.19C13.11,32.45,13,32.38,12.82,32.26Zm8.8-19.6A1.66,1.66,0,0,0,20,13.72a.74.74,0,0,1-.75.52,1,1,0,0,0-1.07.88,1,1,0,0,1-.47.59A1.84,1.84,0,0,0,17.33,19a.71.71,0,0,1,.3.89.46.46,0,0,0,.2.61,2.07,2.07,0,0,0,.65.32,11.52,11.52,0,0,0,1.54.26,2,2,0,0,1,2.07,1.82,1,1,0,0,0,.86,1,9.1,9.1,0,0,0,1.46.25,7.26,7.26,0,0,1,4.29,1.64c.4.34.75.73,1.16,1.05a1.87,1.87,0,0,0,3-1c.15-.59.37-.73,1-.65a2,2,0,0,0,2.24-1.9,1.38,1.38,0,0,1,.26-.74,2.87,2.87,0,0,0-.4-4.16c-.49-.39-.52-.69-.15-1.18a.93.93,0,0,0-.45-1.52c-.52-.18-.64-.37-.58-.92a1,1,0,0,0-1.29-1.19.82.82,0,0,1-1-.46,2.56,2.56,0,0,0-3.16-1c-.58.23-.69.2-1.1-.26a1.36,1.36,0,0,0-2.09,0c-.42.44-.62.47-1.13.14a1.34,1.34,0,0,0-1.74.14C22.74,12.64,22.29,13,21.62,12.66Z"/><rect class="cls-2" width="50" height="50"/></g></g></svg>