<svg xmlns="http://www.w3.org/2000/svg" viewBox="0 0 50 50"><defs><style>.cls-1{fill:#3aaa81;}.cls-2{fill:none;}</style></defs><g id="Capa_2" data-name="Capa 2"><g id="Capa_1-2" data-name="Capa 1"><path class="cls-1" d="M19.49,41.29h7a5.36,5.36,0,0,0,4.72-3l6.05-11.64-.34-.28h0a2.55,2.55,0,0,0-1.95-.7,2.62,2.62,0,0,0-1.88,1l-1.75,2.13a.5.5,0,0,1-.88-.32V13.85a1.66,1.66,0,1,0-3.32-.07V25.15a.52.52,0,0,1-.14.35.52.52,0,0,1-.36.14h0a.5.5,0,0,1-.35-.14.47.47,0,0,1-.15-.35V10.51a1.73,1.73,0,0,0-1.65-1.8h0a1.74,1.74,0,0,0-1.68,1.79V25.15a.5.5,0,0,1-.5.5.5.5,0,0,1-.5-.5V12.4a1.65,1.65,0,1,0-3.28,0V25.15a.5.5,0,0,1-.5.5.5.5,0,0,1-.5-.5V17.63a1.73,1.73,0,0,0-1.68-1.78h0a1.72,1.72,0,0,0-1.66,1.79c0,4.11,0,11.35,0,17.83A5.63,5.63,0,0,0,19.49,41.29Z"/><path class="cls-1" d="M11.42,12c-1.61,1-2.13,10.24-.55,14.07"/><path class="cls-1" d="M8.32,12.35c-1.61,1-2.13,10.23-.55,14.06"/><path class="cls-1" d="M39,24.49c1.9,1.06,1.75,9.83-.53,13.31"/><path class="cls-1" d="M41.87,25.06c1.9,1.06,1.75,9.83-.53,13.31"/><rect class="cls-2" width="50" height="50"/></g></g></svg>