<svg xmlns="http://www.w3.org/2000/svg" viewBox="0 0 50 50"><defs><style>.cls-1{fill:#3aaa81;}.cls-2{fill:none;}</style></defs><g id="Capa_2" data-name="Capa 2"><g id="Capa_1-2" data-name="Capa 1"><path class="cls-1" d="M36.8,33.94A13.54,13.54,0,1,1,24.36,11.55c-3.83,4.79-4.51,10-1.71,15.48a12.71,12.71,0,0,0,6,5.68A14.2,14.2,0,0,0,36.8,33.94Z"/><path class="cls-1" d="M36.2,25.64c-.62.3-1.14.58-1.69.79a.74.74,0,0,0-.51.69c-.09.57-.19,1.13-.31,1.8-.46-.49-.88-.92-1.26-1.38a.72.72,0,0,0-.73-.27l-1.88.26c.34-.62.67-1.16.95-1.73a.8.8,0,0,0,0-.59c-.25-.58-.55-1.13-.86-1.77.72.14,1.36.28,2,.38a.68.68,0,0,0,.49-.15c.48-.43.93-.89,1.46-1.39.08.69.16,1.29.21,1.88a.61.61,0,0,0,.39.58C35,25,35.57,25.31,36.2,25.64Z"/><path class="cls-1" d="M29.14,19.66a1.8,1.8,0,0,0-2.66-.11h-.09c.06-.41.15-.81.18-1.22a1,1,0,0,0-.18-.57,11.6,11.6,0,0,0-.84-.91,9.25,9.25,0,0,1,1.15-.14c.33,0,.46-.17.58-.43s.33-.69.53-1.08c.21.43.37.81.58,1.17a.82.82,0,0,0,.45.32c.39.1.79.13,1.23.2a9.56,9.56,0,0,1-.83.85.64.64,0,0,0-.21.67c.07.37.13.75.19,1.13Z"/><rect class="cls-2" width="50" height="50"/></g></g></svg>