<svg xmlns="http://www.w3.org/2000/svg" viewBox="0 0 50 50"><defs><style>.cls-1{fill:#3aaa81;}.cls-2{fill:none;}</style></defs><g id="Capa_2" data-name="Capa 2"><g id="Capa_1-2" data-name="Capa 1"><path class="cls-1" d="M20.7,10.32v4.41a9.72,9.72,0,0,1-1.95,5.74c-1,1.35-1.28,2.49-.83,3.37A2.36,2.36,0,0,0,19.84,25a17.67,17.67,0,0,0,4.89-.82A19.93,19.93,0,0,1,29,23.37c1.43-.16,2.38-.26,2.74-1.08a1.91,1.91,0,0,0-.44-1.82,9.65,9.65,0,0,1-1.95-5.74V10.32Z"/><path class="cls-1" d="M29.3,39.68V35.27a9.65,9.65,0,0,1,1.95-5.74c1-1.35,1.27-2.49.83-3.37A2.37,2.37,0,0,0,30.16,25a17.57,17.57,0,0,0-4.89.82,20.13,20.13,0,0,1-4.23.81c-1.43.16-2.37.26-2.73,1.08a1.87,1.87,0,0,0,.44,1.82,9.72,9.72,0,0,1,1.95,5.74v4.41Z"/><path class="cls-1" d="M16.64,19a.87.87,0,0,0-1.24.26,11.22,11.22,0,0,0,0,11.48.87.87,0,0,0,1.24.26h0a.85.85,0,0,0,.24-1.14,9.48,9.48,0,0,1,0-9.72A.85.85,0,0,0,16.64,19Z"/><path class="cls-1" d="M33.35,19a.86.86,0,0,0-.24,1.14,9.42,9.42,0,0,1,0,9.72A.86.86,0,0,0,33.35,31h0a.87.87,0,0,0,1.24-.26A10.48,10.48,0,0,0,36.18,25a13.08,13.08,0,0,0-1.37-5.54A1.09,1.09,0,0,0,33.35,19Z"/><rect class="cls-2" width="50" height="50"/></g></g></svg>