<svg xmlns="http://www.w3.org/2000/svg" viewBox="0 0 50 50"><defs><style>.cls-1{fill:#3aaa81;}.cls-2{fill:none;}</style></defs><g id="Capa_2" data-name="Capa 2"><g id="Capa_1-2" data-name="Capa 1"><path class="cls-1" d="M37.94,30.86a12.05,12.05,0,0,1-10.23,6c-5.14,0-5.4-4-8.68-4.18-4.3-.3-6.07,3.81-5.64,6.92a13.61,13.61,0,0,0,.35,1.66.26.26,0,0,1-.24.33h-3a.26.26,0,0,1-.25-.2A10.93,10.93,0,0,1,10.45,35,9.81,9.81,0,0,1,19,28.67c1.79-.06,3.81.08,5.12-1.13a4.51,4.51,0,0,0,1.21-3.1c.07-1.14-.05-2.29.13-3.41a6.71,6.71,0,0,1,3.17-4.69.23.23,0,0,0,0-.41,7.09,7.09,0,0,1-3.39-3.34,7,7,0,0,1-.61-3.93.25.25,0,0,1,.25-.23h3.19a.26.26,0,0,1,.25.27,4.56,4.56,0,0,0,1.48,3.75c2.08,1.79,8.47,1,10.09,8.07a15.22,15.22,0,0,1-1.94,10.34Z"/><path class="cls-1" d="M17.57,32.74a3.05,3.05,0,0,0-.54-.08c-4.31-.3-6.07,3.81-5.64,6.92a13.63,13.63,0,0,0,.45,2H13.5a.26.26,0,0,0,.24-.33,13.61,13.61,0,0,1-.35-1.66c-.38-2.73.94-6.24,4.18-6.84Z"/><path class="cls-1" d="M39.88,20.52c-1.62-7.11-8-6.28-10.09-8.07A4.51,4.51,0,0,1,28.32,8.7a.27.27,0,0,0-.26-.27H26.33a4.63,4.63,0,0,0,1.46,4c2.08,1.79,8.47,1,10.09,8.07a15.16,15.16,0,0,1-2,10.34,12.07,12.07,0,0,1-9.18,5.93,9.61,9.61,0,0,0,1,.05,12.05,12.05,0,0,0,10.23-6,15.22,15.22,0,0,0,1.94-10.34Z"/><rect class="cls-2" width="50" height="50"/></g></g></svg>